<svg id="图层_1" data-name="图层 1" xmlns="http://www.w3.org/2000/svg" viewBox="0 0 200 200"><title>API-black</title><path d="M192.14,61.07A100.34,100.34,0,1,0,200,100a99.69,99.69,0,0,0-7.86-38.93ZM100,186.33A86.33,86.33,0,1,1,186.33,100,86.43,86.43,0,0,1,100,186.33Zm0,0"/><path d="M166,40.91l-6.9-6.9a1.29,1.29,0,0,0-.93-.38,1.33,1.33,0,0,0-.93.38L144.87,46.39a32.6,32.6,0,0,0-41.27,4L87,66.93a1.3,1.3,0,0,0,0,1.83L131.23,113a1.28,1.28,0,0,0,.93.37,1.39,1.39,0,0,0,.93-.37L149.67,96.4a32.59,32.59,0,0,0,4-41.25L166,42.76a1.33,1.33,0,0,0,0-1.85ZM141.83,88.57l-9.67,9.66L101.77,67.84l9.66-9.67a21.5,21.5,0,1,1,30.4,30.4Zm-31,17.08a1.32,1.32,0,0,0-1.84,0L98.2,116.49,83.51,101.8,94.36,90.94a1.29,1.29,0,0,0,0-1.83l-5.92-5.93a1.32,1.32,0,0,0-1.84,0L75.75,94l-7-7a1.29,1.29,0,0,0-.93-.38,1.37,1.37,0,0,0-.93.38L50.33,103.62a32.59,32.59,0,0,0-4,41.25L34,157.26a1.3,1.3,0,0,0,0,1.83l6.9,6.9a1.32,1.32,0,0,0,1.85,0l12.39-12.38a32.58,32.58,0,0,0,41.27-4L113,133.07a1.3,1.3,0,0,0,0-1.83l-7-7,10.85-10.86a1.29,1.29,0,0,0,0-1.83ZM88.55,141.84a21.49,21.49,0,1,1-30.39-30.39l9.66-9.67,30.4,30.4Zm0,0"/></svg>