<svg id="图层_1" data-name="图层 1" xmlns="http://www.w3.org/2000/svg" viewBox="0 0 200 200"><title>feiyong-black</title><path d="M192.14,61.07A100.34,100.34,0,1,0,200,100a99.69,99.69,0,0,0-7.86-38.93ZM100,186.33A86.33,86.33,0,1,1,186.33,100,86.43,86.43,0,0,1,100,186.33Zm0,0"/><path d="M128,95.63a6.87,6.87,0,0,0,0-13.72h-9.35L129,64.19a6.87,6.87,0,0,0-11.88-6.85l-14.4,24.57h-2.45l-.55,0-.55,0H96.47L82.07,57.34a6.87,6.87,0,0,0-11.88,6.85L80.57,81.91H72.41a6.87,6.87,0,0,0,0,13.72H92.88v11.62H72A6.87,6.87,0,0,0,72,121H92.88v30.75a6.87,6.87,0,0,0,13.72,0V121h20.93a6.87,6.87,0,0,0,0-13.72H106.6V95.63Zm0,0"/></svg>