<?xml version="1.0" encoding="utf-8"?>
<!-- Generator: Adobe Illustrator 23.0.6, SVG Export Plug-In . SVG Version: 6.00 Build 0)  -->
<svg version="1.1" id="图层_1" xmlns="http://www.w3.org/2000/svg" xmlns:xlink="http://www.w3.org/1999/xlink" x="0px" y="0px"
	 viewBox="0 0 200 200" style="enable-background:new 0 0 200 200;" xml:space="preserve">
<g>
	<path d="M91.3,59.2l-65.7,53.1c-2.2,1.7-3.4,4.4-3.4,7.2l0,71.6c0.1,4.9,4,8.8,8.8,8.8c0,0,0.1,0,0.1,0l137.8,0c0,0,0.1,0,0.1,0
		c4.8,0,8.7-3.9,8.8-8.8v-71.6c0-2.8-1.3-5.5-3.4-7.2l-65.7-53.1C103.6,55.1,96.4,55.1,91.3,59.2z M119.5,172.6
		c0,4.5-3.9,8.1-8.6,8.1H89.2c-4.8,0-8.7-3.6-8.7-8.1v-41.3c0-4.5,3.9-8.1,8.7-8.1h21.6c4.8,0,8.6,3.6,8.6,8.1V172.6z"/>
	<g>
		<path d="M185,99.1c-3.3,0-6.6-1.1-9.4-3.3l-70.4-56.6c-3.1-2.5-7.4-2.5-10.4,0L24.4,95.6c-6.7,5.4-16.4,4.1-21.5-3
			C-2.1,85.9-0.4,76.2,6.2,71L90.6,3.3c5.5-4.4,13.2-4.4,18.7,0l84.5,67.8c6.6,5.3,8.3,15.2,3.1,22C194,97,189.5,99.1,185,99.1z"/>
	</g>
</g>
</svg>
