<svg id="图层_1" data-name="图层 1" xmlns="http://www.w3.org/2000/svg" xmlns:xlink="http://www.w3.org/1999/xlink" viewBox="0 0 154.63 32"><defs><style>.cls-1{fill:#52b5cc;}.cls-2,.cls-3{opacity:0.21;}.cls-2{fill:url(#未命名的渐变_2);}.cls-3{fill:url(#未命名的渐变_2-2);}.cls-4{fill:#fff;}</style><linearGradient id="未命名的渐变_2" x1="-3810.8" y1="19903.71" x2="-3801.01" y2="19903.71" gradientTransform="matrix(-1, -0.06, 0.06, -1, -5065.82, 19626.51)" gradientUnits="userSpaceOnUse"><stop offset="0.27" stop-color="#fff" stop-opacity="0"/><stop offset="0.3" stop-color="#eaeaf1" stop-opacity="0.09"/><stop offset="0.45" stop-color="#8f91b3" stop-opacity="0.48"/><stop offset="0.58" stop-color="#4d5186" stop-opacity="0.77"/><stop offset="0.7" stop-color="#252a6b" stop-opacity="0.94"/><stop offset="0.79" stop-color="#171c61"/></linearGradient><linearGradient id="未命名的渐变_2-2" x1="5526.24" y1="19303.02" x2="5536.03" y2="19303.02" gradientTransform="matrix(1, -0.06, -0.06, -1, -4259.77, 19626.51)" xlink:href="#未命名的渐变_2"/></defs><title>logo-white</title><path class="cls-1" d="M14.11,8.64,1.37.15A.88.88,0,0,0,0,.89V31.11a.89.89,0,0,0,1.38.74l7.07-4.73a.47.47,0,0,0,.21-.39V23.44a.47.47,0,0,0-.74-.39L6.5,24A.94.94,0,0,1,5,23.21V8.76A.94.94,0,0,1,6.5,8l4.39,2.93a1,1,0,0,1,.43.79v8.86a.47.47,0,0,0,.47.48h2.27a.47.47,0,0,0,.47-.48V9.42A.94.94,0,0,0,14.11,8.64Z"/><path class="cls-2" d="M5.59,7.9a.91.91,0,0,1,.77,0l.08,0L8,9,11,10.94l3.57,2.4V9.39a1,1,0,0,0-.4-.73L8.49,4.9C7.28,4.09,5,5.63,5,8.65A.93.93,0,0,1,5.59,7.9Z"/><path class="cls-1" d="M16.3,8.64,29,.15A.88.88,0,0,1,30.4.89V31.11a.88.88,0,0,1-1.37.74L22,27.12a.45.45,0,0,1-.21-.39V23.44a.47.47,0,0,1,.73-.39L23.9,24a1,1,0,0,0,1.48-.78V8.76A1,1,0,0,0,23.9,8c-1.09.74-4.39,2.93-4.39,2.93a1,1,0,0,0-.42.79v8.86a.47.47,0,0,1-.48.48H16.35a.48.48,0,0,1-.48-.48V9.42A.93.93,0,0,1,16.3,8.64Z"/><path class="cls-3" d="M24.82,7.9a.93.93,0,0,0-.78,0l-.08,0L22.36,9l-2.91,1.94-3.58,2.4V9.39a1,1,0,0,1,.4-.73L21.92,4.9c1.2-.81,3.45.73,3.45,3.75A.93.93,0,0,0,24.82,7.9Z"/><path class="cls-4" d="M76.38,25.29H61.85a1.09,1.09,0,0,1-1.09-1.09V8.29a.13.13,0,0,0-.13-.13h-1.9v-1h1.9a1.1,1.1,0,0,1,1.1,1.1V24.2a.13.13,0,0,0,.12.12H76.38Z"/><path class="cls-4" d="M76.37,9.72H70a1.13,1.13,0,0,1-1.15-1.09v-2h1v2c0,.06.08.12.18.12h6.36Z"/><path class="cls-4" d="M68.15,23.41h-1V9.85a.28.28,0,0,0,0-.13H62.47v-1h4.8a1.07,1.07,0,0,1,.88,1.1Z"/><rect class="cls-4" x="64.51" y="13.17" width="0.97" height="5.37"/><rect class="cls-4" x="74.28" y="13.17" width="0.97" height="5.37"/><rect class="cls-4" x="71.49" y="9.24" width="0.97" height="14.17"/><path class="cls-4" d="M46,25.3H41.55v-1h4.28V8.06a.12.12,0,0,0-.12-.12h-7V7h7a1.1,1.1,0,0,1,1.1,1.09V24.5A.8.8,0,0,1,46,25.3Z"/><rect class="cls-4" x="38.7" y="12.5" width="6.12" height="0.97"/><rect class="cls-4" x="38.7" y="16.81" width="6.12" height="0.97"/><path class="cls-4" d="M55.88,25.3H51.41v-1H55.7V8.06a.12.12,0,0,0-.13-.12h-7V7h7a1.09,1.09,0,0,1,1.1,1.09V24.5A.8.8,0,0,1,55.88,25.3Z"/><rect class="cls-4" x="48.56" y="12.5" width="6.12" height="0.97"/><rect class="cls-4" x="48.56" y="16.81" width="6.12" height="0.97"/><path class="cls-4" d="M85.22,8.17H84.3L78.18,25.34h1.09l2.12-6H88.1l2.1,6h1.17L85.25,8.25Zm2.55,10.18h-6l1.14-3.24c.84-2.39,1.48-4.31,1.9-5.72.5,1.66,1.14,3.58,1.88,5.72Z"/><path class="cls-4" d="M102.52,8.17,99.26,18.38c-1,2.93-1.56,4.8-1.81,5.56-.41-1.19-1-3.05-1.79-5.56L92.37,8.17H91.23l5.69,17.17h1l5.67-17.17Z"/><path class="cls-4" d="M110.52,8.17h-.92l-6.12,17.17h1.09l2.12-6h6.71l2.1,6h1.17L110.55,8.25Zm2.55,10.18h-6l1.14-3.24c.84-2.39,1.48-4.31,1.9-5.72.5,1.66,1.14,3.58,1.88,5.72Z"/><polygon class="cls-4" points="128.43 8.18 116.38 8.18 116.38 9.16 121.84 9.16 121.84 25.34 122.97 25.34 122.97 9.16 128.43 9.16 128.43 8.18"/><path class="cls-4" d="M135.22,8.17h-.93l-6.12,17.17h1.09l2.13-6h6.71l2.1,6h1.16L135.24,8.25Zm2.55,10.18h-6.05l1.14-3.24c.85-2.39,1.49-4.31,1.91-5.72.5,1.66,1.13,3.58,1.88,5.72Z"/><path class="cls-4" d="M149.84,17.29c2.95-.34,4.45-1.9,4.45-4.64,0-3-1.87-4.48-5.57-4.48h-4.8V25.34H145v-8h3.59l4.79,8h1.25ZM145,9.16h3.42c3.18,0,4.72,1.14,4.72,3.49,0,2.52-1.54,3.74-4.72,3.74H145Z"/></svg>