<svg id="图层_1" data-name="图层 1" xmlns="http://www.w3.org/2000/svg" xmlns:xlink="http://www.w3.org/1999/xlink" viewBox="0 0 30.4 32"><defs><style>.cls-1{fill:#52b5cc;}.cls-2,.cls-3{opacity:0.21;}.cls-2{fill:url(#未命名的渐变_2);}.cls-3{fill:url(#未命名的渐变_2-2);}</style><linearGradient id="未命名的渐变_2" x1="-3823.67" y1="20012.74" x2="-3813.88" y2="20012.74" gradientTransform="matrix(-1, -0.06, 0.06, -1, -5085.66, 19734.48)" gradientUnits="userSpaceOnUse"><stop offset="0.27" stop-color="#fff" stop-opacity="0"/><stop offset="0.3" stop-color="#eaeaf1" stop-opacity="0.09"/><stop offset="0.45" stop-color="#8f91b3" stop-opacity="0.48"/><stop offset="0.58" stop-color="#4d5186" stop-opacity="0.77"/><stop offset="0.7" stop-color="#252a6b" stop-opacity="0.94"/><stop offset="0.79" stop-color="#171c61"/></linearGradient><linearGradient id="未命名的渐变_2-2" x1="5529.71" y1="19410.99" x2="5539.5" y2="19410.99" gradientTransform="matrix(1, -0.06, -0.06, -1, -4256.3, 19734.48)" xlink:href="#未命名的渐变_2"/></defs><title>LOGO</title><path class="cls-1" d="M14.11,8.64,1.37.15A.88.88,0,0,0,0,.89V31.11a.89.89,0,0,0,1.38.74l7.07-4.73a.47.47,0,0,0,.21-.39V23.44a.47.47,0,0,0-.74-.39L6.5,24A.94.94,0,0,1,5,23.21V8.76A.94.94,0,0,1,6.5,8l4.39,2.93a1,1,0,0,1,.43.79v8.86a.47.47,0,0,0,.47.48h2.27a.47.47,0,0,0,.47-.48V9.42A.94.94,0,0,0,14.11,8.64Z"/><path class="cls-2" d="M5.59,7.9a.91.91,0,0,1,.77,0l.08,0L8,9,11,10.94l3.57,2.4V9.39a1,1,0,0,0-.4-.73L8.49,4.9C7.28,4.09,5,5.63,5,8.65A.93.93,0,0,1,5.59,7.9Z"/><path class="cls-1" d="M16.3,8.64,29,.15A.88.88,0,0,1,30.4.89V31.11a.88.88,0,0,1-1.37.74L22,27.12a.45.45,0,0,1-.21-.39V23.44a.47.47,0,0,1,.73-.39L23.9,24a1,1,0,0,0,1.48-.78V8.76A1,1,0,0,0,23.9,8c-1.09.74-4.39,2.93-4.39,2.93a1,1,0,0,0-.42.79v8.86a.47.47,0,0,1-.48.48H16.35a.48.48,0,0,1-.48-.48V9.42A.93.93,0,0,1,16.3,8.64Z"/><path class="cls-3" d="M24.82,7.9a.93.93,0,0,0-.78,0l-.08,0L22.36,9l-2.91,1.94-3.58,2.4V9.39a1,1,0,0,1,.4-.73L21.92,4.9c1.2-.81,3.45.73,3.45,3.75A.93.93,0,0,0,24.82,7.9Z"/></svg>