<svg id="图层_1" data-name="图层 1" xmlns="http://www.w3.org/2000/svg" viewBox="0 0 200 200"><defs><style>.cls-1{fill:#5edaef;}</style></defs><title>OCR</title><path class="cls-1" d="M195.82,38.68A14.3,14.3,0,0,0,200,28.57V14.29A14.27,14.27,0,0,0,185.71,0H171.43a14.27,14.27,0,0,0-14.29,14.29H42.86A14.27,14.27,0,0,0,28.57,0H14.29A14.27,14.27,0,0,0,0,14.29V28.57A14.27,14.27,0,0,0,14.29,42.86V157.14A14.27,14.27,0,0,0,0,171.43v14.28A14.27,14.27,0,0,0,14.29,200H28.57a14.27,14.27,0,0,0,14.29-14.29H157.14A14.27,14.27,0,0,0,171.43,200h14.28A14.27,14.27,0,0,0,200,185.71V171.43a14.27,14.27,0,0,0-14.29-14.29V42.86A14.3,14.3,0,0,0,195.82,38.68ZM171.43,157.14h0a14.27,14.27,0,0,0-14.29,14.29H42.86a14.27,14.27,0,0,0-14.29-14.29V42.86A14.27,14.27,0,0,0,42.86,28.57H157.14a14.27,14.27,0,0,0,14.29,14.29Z"/><path class="cls-1" d="M67.43,73.34c-9.58,0-15.74,6.58-15.74,16.86s6.16,17,15.7,17,15.73-6.82,15.73-17.1S77,73.34,67.43,73.34Zm0,27.1c-4.75,0-7.68-3.93-7.68-10.28S62.68,80,67.43,80,75,83.85,75,90.16,72.14,100.44,67.43,100.44Z"/><path class="cls-1" d="M115.83,83.77l-8,1.56c-.74-3.54-2.8-5.29-6.15-5.29-4.75,0-7.52,3.73-7.52,10.16s2.88,10.2,7.71,10.2A6.13,6.13,0,0,0,107,98a6.6,6.6,0,0,0,1.17-3.35l8.1,1.21a14.78,14.78,0,0,1-3.23,7.12c-2.42,2.77-6.19,4.25-10.91,4.25s-8.76-1.48-11.52-4.29S86,95.42,86,90.2s1.64-9.77,4.71-12.81a15.79,15.79,0,0,1,11.18-4c5,0,9,1.71,11.49,5.1a12.06,12.06,0,0,1,2.41,5.33Z"/><path class="cls-1" d="M146.83,102.31c-1.75-4.2-2.3-5.53-2.88-6.77-1.25-2.77-2.14-3.67-4.13-4.29a7.61,7.61,0,0,0,6-8.33c0-5.61-3.66-8.88-10-8.88H125.72c-2.64,0-4.09,0-5.8-.12a42.16,42.16,0,0,1,.31,5.73V100.6a39,39,0,0,1-.31,5.84h8.37a41.6,41.6,0,0,1-.31-5.88V94.17h4a4.26,4.26,0,0,1,3,1c1,.86,1.44,1.76,2.69,5.14a38.49,38.49,0,0,1,1.91,6.08h9.11C147.73,104.38,147.26,103.4,146.83,102.31Zm-12.77-14.8H128V80.58h6.12c2.41,0,3.66,1.13,3.66,3.31A3.4,3.4,0,0,1,134.06,87.51Z"/><path class="cls-1" d="M58.14,122.37h84.11a4.67,4.67,0,1,1,0,9.34H58.14a4.67,4.67,0,0,1,0-9.34Z"/><path class="cls-1" d="M74.4,52.56a6.07,6.07,0,0,0,.78,1.74,60.5,60.5,0,0,0-4.87,4.18,4.81,4.81,0,0,0-1.26-1.33,3.25,3.25,0,0,0,1.28-2.57V47.65H67.5V45.71h4.79v8.5Zm-2.52-8.48a24.84,24.84,0,0,0-3.35-3.37l1.32-1.22a27.57,27.57,0,0,1,3.44,3.19Zm7.52,8.65A15.79,15.79,0,0,1,75.94,59a13.07,13.07,0,0,0-1.78-1.18,12.21,12.21,0,0,0,3.18-5.5Zm6.46-2.41h-10V40.47h10ZM83.78,42.4h-5.9v6h5.9Zm.3,9.79A26.08,26.08,0,0,1,87,58l-2,.79a25.09,25.09,0,0,0-2.8-5.94Z"/><path class="cls-1" d="M124.16,49.36l0,.82q-.27,6.89-1,7.72a2.08,2.08,0,0,1-1.38.73,18.69,18.69,0,0,1-2.37,0,4.47,4.47,0,0,0-.56-1.92c.7.07,1.35.1,1.94.1a.87.87,0,0,0,.69-.25c.31-.38.54-2.18.66-5.42h-2.58Q118.83,56.91,115,59a4.42,4.42,0,0,0-1.21-1.51c2.18-1.12,3.48-3.22,3.88-6.3h-3.3V49.36h3.49c0-.36.06-.9.09-1.61h1.88c0,.71-.06,1.25-.09,1.61Zm-.45-2.13H115V40.05h8.67Zm-1.92-5.39h-4.92v3.6h4.92Zm6.45,11.77H126.3V41.69h1.94Zm4.52-14.08V56.39c0,1.12-.33,1.83-1,2.14a10.61,10.61,0,0,1-3.82.38,7.38,7.38,0,0,0-.64-2c.59,0,1.57,0,2.95,0,.35,0,.52-.19.52-.52V39.53Z"/><path class="cls-1" d="M86.23,147.65a22.89,22.89,0,0,1-3.44,4v4.91c0,1.12-.35,1.81-1.06,2.08a14.17,14.17,0,0,1-4.2.38,7.56,7.56,0,0,0-.67-2c.67,0,1.82,0,3.46,0,.39,0,.59-.21.59-.57v-3.29a36.51,36.51,0,0,1-12.23,6,8.36,8.36,0,0,0-1.18-1.62,34.74,34.74,0,0,0,10.7-4.61h-10v-1.72h2.71v-9.46H75.2c.35-.91.6-1.6.74-2.06l2.26.29c-.31.63-.62,1.22-.94,1.77h5.53v7.23a19.9,19.9,0,0,0,1.75-2.26Zm-13.42-4.07v1.53h8.1v-1.53Zm0,4.59h8.1v-1.62h-8.1Zm7.7,3.17.4-.34v-1.36h-8.1v1.7Z"/><path class="cls-1" d="M96.7,140.51a35,35,0,0,1-1.93,4.39v14.22H92.84v-11c-.56.77-1.07,1.41-1.53,1.93a6.82,6.82,0,0,0-1.07-2A21.92,21.92,0,0,0,94.88,140Zm8.85-.23a12.63,12.63,0,0,0,4.45,7.58,5.1,5.1,0,0,0-1.34,1.63,9.48,9.48,0,0,1-1.15-1.07l0,.32q-.39,8.44-1.19,9.41a2,2,0,0,1-1.47.78,14.2,14.2,0,0,1-2.47,0,3.92,3.92,0,0,0-.53-1.78c.6.06,1.3.08,2.1.08a.92.92,0,0,0,.71-.27c.39-.48.69-2.89.9-7.26h-3.31q-.75,6.9-5.08,9.46a5.64,5.64,0,0,0-1.32-1.47q3.89-2,4.47-8H98v-1.3a15.48,15.48,0,0,1-1.3,1.28,8.24,8.24,0,0,0-1.2-1.74,13.27,13.27,0,0,0,4.47-7.53l1.91.42a19.66,19.66,0,0,1-3.42,7.05H107a16.46,16.46,0,0,1-3.23-7.28Z"/><path class="cls-1" d="M120.24,153a8.39,8.39,0,0,0,.75,1.72,54.18,54.18,0,0,0-4.57,4,4.32,4.32,0,0,0-1.22-1.3,3.1,3.1,0,0,0,1.24-2.46v-6.69h-2.73v-1.87h4.62v8.19Zm-2.31-8.2a23.08,23.08,0,0,0-3.23-3.25l1.28-1.18a26.9,26.9,0,0,1,3.32,3.09Zm14.83,11.73v1.82H120.09v-1.82h1.68v-9.74h1.93v9.74h2.45V143.16h-5.43v-1.83h11.64v1.83h-4.21v5.12H132v1.8h-3.82v6.4Z"/></svg>