<svg id="图层_1" data-name="图层 1" xmlns="http://www.w3.org/2000/svg" viewBox="0 0 200 200"><defs><style>.cls-1{fill:#5edaef;}.cls-2{fill:#fff;}</style></defs><title>shouji</title><circle class="cls-1" cx="100" cy="100" r="100"/><path class="cls-2" d="M130.65,39.91H69.39a6.92,6.92,0,0,0-7,6.9V153.22a6.9,6.9,0,0,0,7,6.87h61.26a6.89,6.89,0,0,0,6.91-6.87V46.78a6.89,6.89,0,0,0-6.91-6.87m-36.4,6.87h11.57a1.45,1.45,0,1,1,0,2.89H94.25a1.45,1.45,0,1,1,0-2.89M100,155.21a6.33,6.33,0,1,1,6.37-6.33,6.35,6.35,0,0,1-6.37,6.33m31.22-20.93a3.44,3.44,0,0,1-3.45,3.44H72.27a3.45,3.45,0,0,1-3.46-3.44V58.85a3.46,3.46,0,0,1,3.46-3.44h55.46a3.45,3.45,0,0,1,3.46,3.44v75.43Zm0,0"/></svg>