<svg id="图层_1" data-name="图层 1" xmlns="http://www.w3.org/2000/svg" viewBox="0 0 317.02 237.15"><defs><style>.cls-1,.cls-5{fill:#fff;}.cls-1{stroke:#e3e3e3;stroke-miterlimit:10;stroke-width:2px;}.cls-2{fill:#f5f5f5;}.cls-3{fill:#cdcdcd;}.cls-4{fill:#b5b6b6;}.cls-6{fill:#bebebe;}</style></defs><title>shenfenzheng</title><rect class="cls-1" x="1" y="1" width="315.02" height="208.21" rx="5.88"/><rect class="cls-2" x="5.06" y="5.06" width="306.91" height="200.1" rx="2.72"/><path class="cls-3" d="M188.93,145.67s-9.46-32.45,48.67-32.45,44.62,32.45,44.62,32.45Z"/><path class="cls-4" d="M202.45,120V61.66c0-17.93,14.05-33,32-33.59q.9,0,1.83,0c29.74,0,31.1,36.5,31.1,36.5v52.73l-2.57-.53a39.88,39.88,0,0,0-8-.82H219.69a35.92,35.92,0,0,0-12.76,2.35Z"/><path class="cls-5" d="M209.21,74s2.7-11.81,2.7-17.58c0,0,0-1.35,6.76-5.41,0,0,17.58,16.23,36.51,17.58,0,0,2.86,0,3,4.82a.64.64,0,0,0,1.19.31c1.3-2.36,3.12-4.89,3.94-2.43,1.35,4.06-1.35,12.17-5.41,14.88,0,0-4,13.52-12.17,18.93,0,0-2.33,11.69,11.48,11.15a2.74,2.74,0,0,1,2.8,3.36c-1.49,6.49-6.59,19.29-23.74,19.29-17.82,0-21.83-13.83-22.72-20a2.4,2.4,0,0,1,2.41-2.74c4.15,0,11.46-1.22,9.49-11,0,0-9.46-4.06-13.52-18.93a18.49,18.49,0,0,1-4-4.06C205.23,77.91,205.15,70,209.21,74Z"/><rect class="cls-3" x="36.15" y="37.5" width="14.87" height="4.06"/><rect class="cls-3" x="64.54" y="37.5" width="51.38" height="4.06"/><rect class="cls-3" x="36.15" y="57.78" width="14.87" height="4.06"/><rect class="cls-3" x="64.54" y="57.78" width="51.38" height="4.06"/><rect class="cls-3" x="36.15" y="76.71" width="14.87" height="4.06"/><rect class="cls-3" x="64.54" y="76.71" width="28.39" height="4.06"/><rect class="cls-3" x="36.15" y="96.99" width="14.87" height="4.06"/><rect class="cls-3" x="64.54" y="96.99" width="90.58" height="4.06"/><rect class="cls-3" x="64.54" y="115.92" width="60.84" height="4.06"/><rect class="cls-3" x="36.15" y="165.95" width="52.73" height="4.06"/><rect class="cls-3" x="98.35" y="165.95" width="185.23" height="4.06"/><circle class="cls-6" cx="158.51" cy="210.11" r="27.04"/><rect class="cls-5" x="148.03" y="207.75" width="21.63" height="4.06" rx="1.5"/><rect class="cls-5" x="148.03" y="207.75" width="21.63" height="4.06" rx="1.5" transform="translate(-50.93 368.62) rotate(-90)"/></svg>