<svg id="图层_1" data-name="图层 1" xmlns="http://www.w3.org/2000/svg" viewBox="0 0 317.02 237.15"><defs><style>.cls-1,.cls-9{fill:#fff;}.cls-1{stroke:#e3e3e3;stroke-miterlimit:10;stroke-width:2px;}.cls-2{fill:#f5f5f5;}.cls-3{fill:#cbcbcb;}.cls-4{fill:#d8d8d8;}.cls-5{fill:#9c9c9c;}.cls-6{fill:#fdfdfd;}.cls-7{fill:#d9d9d9;}.cls-8{fill:#bebebe;}</style></defs><title>shenfenzheng</title><path class="cls-1" d="M6.88,1H310.14A5.88,5.88,0,0,1,316,6.88V203.34a5.88,5.88,0,0,1-5.87,5.88H6.87A5.87,5.87,0,0,1,1,203.34V6.87A5.87,5.87,0,0,1,6.88,1Z"/><rect class="cls-2" x="5.06" y="5.06" width="306.91" height="200.1" rx="2.72"/><path class="cls-3" d="M58.43,78.88,55.32,89l12.44,6.22.77-2.34v1.56s10.89,3.11,21.77,0V92.87l.78,2.34L103.52,89,102,78.88Z"/><circle class="cls-4" cx="79.42" cy="58.67" r="31.1"/><circle class="cls-5" cx="79.42" cy="58.67" r="23.32"/><polygon class="cls-6" points="79.03 36.12 80.98 40.07 85.33 40.7 82.18 43.78 82.92 48.12 79.03 46.07 75.13 48.12 75.88 43.78 72.72 40.7 77.08 40.07 79.03 36.12"/><polygon class="cls-6" points="66.59 43.9 67.78 46.31 70.44 46.7 68.52 48.57 68.97 51.23 66.59 49.97 64.21 51.23 64.66 48.57 62.74 46.7 65.4 46.31 66.59 43.9"/><polygon class="cls-6" points="91.47 43.9 92.66 46.31 95.32 46.7 93.39 48.57 93.85 51.23 91.47 49.97 89.08 51.23 89.54 48.57 87.61 46.7 90.28 46.31 91.47 43.9"/><polygon class="cls-6" points="75.28 51.17 75.46 53.85 77.78 55.22 75.28 56.23 74.69 58.85 72.97 56.79 70.29 57.04 71.72 54.76 70.65 52.29 73.26 52.95 75.28 51.17"/><polygon class="cls-6" points="82.33 51.16 84.33 52.95 86.94 52.32 85.86 54.78 87.27 57.07 84.59 56.8 82.85 58.85 82.28 56.22 79.8 55.19 82.12 53.84 82.33 51.16"/><rect class="cls-6" x="72.63" y="64.89" width="12.8" height="2.7"/><rect class="cls-6" x="70.61" y="66.23" width="16.84" height="2.7"/><rect class="cls-6" x="71.28" y="68.26" width="15.5" height="2.7"/><rect class="cls-6" x="63.19" y="70.95" width="31.67" height="4.04"/><rect class="cls-7" x="149.72" y="46.97" width="123.03" height="6.76"/><rect class="cls-7" x="149.72" y="113.22" width="16.22" height="4.06"/><rect class="cls-7" x="178.11" y="113.22" width="94.64" height="4.06"/><rect class="cls-7" x="149.72" y="132.15" width="16.22" height="4.06"/><rect class="cls-7" x="178.11" y="132.15" width="94.64" height="4.06"/><rect class="cls-7" x="149.72" y="61.84" width="16.22" height="16.22"/><rect class="cls-7" x="176.42" y="61.84" width="16.22" height="16.22"/><rect class="cls-7" x="203.13" y="61.84" width="16.22" height="16.22"/><rect class="cls-7" x="229.83" y="61.84" width="16.22" height="16.22"/><rect class="cls-7" x="256.53" y="61.84" width="16.22" height="16.22"/><circle class="cls-8" cx="158.51" cy="210.11" r="27.04"/><rect class="cls-9" x="148.03" y="207.75" width="21.63" height="4.06" rx="1.5"/><rect class="cls-9" x="148.03" y="207.75" width="21.63" height="4.06" rx="1.5" transform="translate(-50.93 368.62) rotate(-90)"/></svg>