<svg id="图层_1" data-name="图层 1" xmlns="http://www.w3.org/2000/svg" viewBox="0 0 200 200"><title>gerenzhongxin-black</title><path d="M193,63.36A99.33,99.33,0,0,0,100,0h0A99.94,99.94,0,0,0,31.64,172.8a16.67,16.67,0,0,0,5,4.55,100,100,0,0,0,126.84,0,32.7,32.7,0,0,0,4.7-4.25A99.43,99.43,0,0,0,193,63.36ZM72.16,122a59.54,59.54,0,0,0,55.7,0l25.3,46.47a86.84,86.84,0,0,1-106.27,0Zm51.07-12.59a46.54,46.54,0,0,1-46.52,0,10.61,10.61,0,0,0-9.68-.67l-.93.42a10.35,10.35,0,0,0-4.87,4.49L36.56,159.09a86.63,86.63,0,1,1,126.93,0l-24.7-45.36a10.32,10.32,0,0,0-4.89-4.5l-1-.46A10.6,10.6,0,0,0,123.23,109.43Z"/><path d="M100,27.6a35.9,35.9,0,1,0,35.87,35.89A35.92,35.92,0,0,0,100,27.6Zm24,35.89a24,24,0,1,1-7-17A24,24,0,0,1,124,63.49Z"/></svg>