<svg id="图层_1" data-name="图层 1" xmlns="http://www.w3.org/2000/svg" viewBox="0 0 200 200"><defs><style>.cls-1{fill:#61ba46;}</style></defs><title>weixin</title><path class="cls-1" d="M56.66,56.83c-4.47,0-9,3-9,7.47s4.49,7.43,9,7.43a7,7,0,0,0,7.41-7.43c0-4.5-3-7.47-7.41-7.47ZM117.59,100a5.94,5.94,0,1,0,0,11.87c4.5,0,7.44-2.91,7.44-6S122.1,100,117.59,100Zm0,0"/><path class="cls-1" d="M200,30.44A30.44,30.44,0,0,0,169.54,0H30.46A30.46,30.46,0,0,0,0,30.44V169.53A30.45,30.45,0,0,0,30.46,200H169.54A30.44,30.44,0,0,0,200,169.53ZM76,132.71c-7.43,0-13.39-1.51-20.83-3L34.36,140.16l5.94-17.89C25.41,111.86,16.51,98.49,16.51,82.13c0-28.27,26.76-50.56,59.45-50.56,29.24,0,54.85,17.8,60,41.77A55.45,55.45,0,0,0,130.2,73c-28.23,0-50.51,21-50.51,47a43.76,43.76,0,0,0,1.82,12.46c-1.84.14-3.7.21-5.55.22Zm87.71,20.86,4.47,14.83-16.34-8.9c-5.93,1.47-11.91,2.93-17.81,2.93-28.29,0-50.58-19.34-50.58-43.12S105.7,76.16,134,76.16c26.7,0,50.48,19.4,50.48,43.15,0,13.4-8.87,25.3-20.8,34.26Zm0,0"/><path class="cls-1" d="M150.27,100a5.94,5.94,0,0,0,0,11.87c4.47,0,7.46-2.91,7.46-6s-3-5.91-7.46-5.91Zm-52-28.27a7,7,0,0,0,7.45-7.43,7,7,0,0,0-7.45-7.47c-4.46,0-8.93,3-8.93,7.47s4.47,7.43,8.93,7.43Zm0,0"/></svg>