<svg id="图层_1" data-name="图层 1" xmlns="http://www.w3.org/2000/svg" viewBox="0 0 200 200"><defs><style>.cls-1{fill:#1296db;}</style></defs><title>zhifubao</title><path class="cls-1" d="M200,136.91V38.45A38.47,38.47,0,0,0,161.53,0H38.45A38.46,38.46,0,0,0,0,38.45v123.1A38.46,38.46,0,0,0,38.45,200H161.54a38.48,38.48,0,0,0,37.86-31.66c-10.2-4.42-54.39-23.51-77.43-34.5-17.52,21.23-35.87,34-63.54,34s-46.12-17-43.91-37.89C16,116.24,25.37,93.85,66.15,97.69c21.49,2,31.33,6,48.85,11.82a138.77,138.77,0,0,0,11.16-27.19H48.45V74.61H86.9V60.79H40V52.31H86.9v-20a3.74,3.74,0,0,1,3.88-3.12H110V52.3h50v8.48H110V74.6H150.8a157.26,157.26,0,0,1-16.57,41.54c11.85,4.29,65.77,20.77,65.77,20.77ZM55.37,154.6c-29.23,0-33.86-18.45-32.3-26.16s10-17.7,26.25-17.7c18.67,0,35.4,4.79,55.48,14.55C90.7,143.67,73.37,154.6,55.37,154.6Zm0,0"/></svg>